HIERARCHY
ROOT SimulationBone
{
	OFFSET 0.000000 0.000000 0.000000
	CHANNELS 6 Xposition Yposition Zposition Zrotation Yrotation Xrotation 
	JOINT Hips
	{
		OFFSET 0.000000 0.000000 0.000000
		CHANNELS 6 Xposition Yposition Zposition Zrotation Yrotation Xrotation 
		JOINT RightUpLeg
		{
			OFFSET 0.103457 1.857824 10.548504
			CHANNELS 3 Zrotation Yrotation Xrotation
			JOINT RightLeg
			{
				OFFSET 43.500000 -0.000038 -0.000017
				CHANNELS 3 Zrotation Yrotation Xrotation
				JOINT RightFoot
				{
					OFFSET 42.372200 0.000011 0.000019
					CHANNELS 3 Zrotation Yrotation Xrotation
					JOINT RightToe
					{
						OFFSET 17.300011 0.000002 -0.000008
						CHANNELS 3 Zrotation Yrotation Xrotation
						End Site
						{
							OFFSET 0.000000 0.000000 0.000000
						}
					}
				}
			}
		}
		JOINT LeftUpLeg
		{
			OFFSET 0.103457 1.857822 -10.548492
			CHANNELS 3 Zrotation Yrotation Xrotation
			JOINT LeftLeg
			{
				OFFSET 43.500038 -0.000027 0.000036
				CHANNELS 3 Zrotation Yrotation Xrotation
				JOINT LeftFoot
				{
					OFFSET 42.372261 0.000015 0.000010
					CHANNELS 3 Zrotation Yrotation Xrotation
					JOINT LeftToe
					{
						OFFSET 17.299988 -0.000006 0.000008
						CHANNELS 3 Zrotation Yrotation Xrotation
						End Site
						{
							OFFSET 0.000000 0.000000 0.000000
						}
					}
				}
			}
		}
		JOINT Spine
		{
			OFFSET 6.901965 -2.603737 0.000006
			CHANNELS 3 Zrotation Yrotation Xrotation
			JOINT Spine1
			{
				OFFSET 12.588104 -0.000005 0.000007
				CHANNELS 3 Zrotation Yrotation Xrotation
				JOINT Spine2
				{
					OFFSET 12.343202 0.000026 -0.000008
					CHANNELS 3 Zrotation Yrotation Xrotation
					JOINT Neck
					{
						OFFSET 25.832890 -0.000029 -0.000007
						CHANNELS 3 Zrotation Yrotation Xrotation
						JOINT Head
						{
							OFFSET 11.766619 0.000021 0.000012
							CHANNELS 3 Zrotation Yrotation Xrotation
							End Site
							{
								OFFSET 0.000000 0.000000 0.000000
							}
						}
					}
					JOINT RightShoulder
					{
						OFFSET 19.745909 -1.480377 6.000106
						CHANNELS 3 Zrotation Yrotation Xrotation
						JOINT RightArm
						{
							OFFSET 11.284110 -0.000009 -0.000020
							CHANNELS 3 Zrotation Yrotation Xrotation
							JOINT RightForeArm
							{
								OFFSET 33.000053 0.000014 0.000021
								CHANNELS 3 Zrotation Yrotation Xrotation
								JOINT RightHand
								{
									OFFSET 25.200008 0.000006 -0.000004
									CHANNELS 3 Zrotation Yrotation Xrotation
									End Site
									{
										OFFSET 0.000000 0.000000 0.000000
									}
								}
							}
						}
					}
					JOINT LeftShoulder
					{
						OFFSET 19.746101 -1.480381 -6.000081
						CHANNELS 3 Zrotation Yrotation Xrotation
						JOINT LeftArm
						{
							OFFSET 11.284131 -0.000022 0.000003
							CHANNELS 3 Zrotation Yrotation Xrotation
							JOINT LeftForeArm
							{
								OFFSET 33.000095 0.000014 0.000005
								CHANNELS 3 Zrotation Yrotation Xrotation
								JOINT LeftHand
								{
									OFFSET 25.199774 0.000153 0.000423
									CHANNELS 3 Zrotation Yrotation Xrotation
									End Site
									{
										OFFSET 0.000000 0.000000 0.000000
									}
								}
							}
						}
					}
				}
			}
		}
	}
}
MOTION
Frames: 5
Frame Time: 0.016667
-299.989234 0.000000 170.541086 0.000000 73.052880 0.000000 -0.872808 83.842293 -0.872742 95.854378 -2.402889 179.307238 163.809246 -20.266295 160.728039 -42.131983 4.848740 -15.531136 87.027797 8.930027 -9.423464 21.454557 0.003108 0.000018 -178.505054 2.792688 -162.823650 -51.142796 3.518112 2.601472 98.808077 -1.946887 -1.972763 21.454558 -0.003095 -0.000003 9.983867 -1.050603 -1.281469 9.979414 -1.986677 -2.649149 9.661485 -2.002765 -2.637118 17.158928 -5.735122 -21.079487 -25.814948 25.372116 -33.886347 169.270993 -75.641349 9.538098 12.614646 46.590102 42.232032 -51.243585 -23.029086 2.361324 6.384261 -20.300651 5.920214 -133.160901 72.419481 49.499034 12.167349 -54.682315 -40.191663 -58.716799 19.431615 -2.353484 -5.879440 10.664851 -7.975941 
-299.353388 0.000000 170.751795 0.000000 70.263615 0.000000 -0.671127 83.379207 -0.563833 96.023081 -2.061521 179.631266 162.815035 -19.967981 164.030235 -45.250786 5.828158 -13.682081 88.538361 8.114143 -6.909112 21.454560 0.003106 0.000014 -178.325266 2.051464 -163.496453 -51.545854 3.386024 2.039991 99.748688 -1.625318 -3.049553 21.454546 -0.003087 0.000002 10.165117 -0.865115 -1.233198 10.336342 -1.616519 -2.538977 10.018454 -1.631954 -2.529177 16.573792 -6.374536 -20.361619 -26.291664 25.103749 -33.177521 169.842659 -75.477364 8.958441 12.147741 45.913244 41.845773 -51.378124 -22.700801 2.342730 6.422948 -19.546224 5.717995 -137.205576 72.327608 45.362858 8.818316 -55.759565 -37.499866 -58.249623 19.755781 -2.357725 -5.818588 12.376026 -6.739658 
-298.558036 0.000000 170.825019 0.000000 67.508154 0.000000 -0.611552 82.991852 -0.400364 96.196020 -1.911705 179.557326 161.936695 -19.372109 166.727213 -48.711088 5.966227 -12.006253 89.357691 7.085945 -6.233007 21.454558 0.003111 0.000015 -178.281406 1.400296 -164.740898 -52.048790 3.083678 1.553349 100.464609 -1.332898 -3.932989 21.454543 -0.003085 0.000002 10.353552 -0.736402 -1.103406 10.708583 -1.367408 -2.270383 10.390658 -1.381230 -2.262092 15.986956 -7.028003 -19.691599 -26.846998 24.717619 -32.492469 170.670922 -75.395599 8.114968 11.697743 45.675639 41.806296 -51.032550 -22.585267 2.323774 6.834836 -18.792982 4.680636 -141.143057 72.407624 41.323963 5.491057 -56.677744 -34.970561 -58.104309 20.086960 -2.375682 -5.652198 14.208729 -6.055758 
-297.611650 0.000000 170.768700 0.000000 64.800161 0.000000 -0.649601 82.655027 -0.344097 96.363964 -1.845589 179.360168 161.073877 -18.568049 168.776189 -52.339192 5.523230 -10.666795 89.769852 6.144680 -6.571911 21.454554 0.003117 0.000018 -178.179386 0.812180 -166.169685 -52.505322 2.730091 1.090922 101.004007 -1.048782 -4.721626 21.454545 -0.003087 0.000000 10.547181 -0.624259 -0.938457 11.091855 -1.155542 -1.932532 10.773874 -1.167331 -1.925530 15.359487 -7.721425 -19.068253 -27.384854 24.269549 -31.827985 171.722136 -75.322276 7.043667 11.316496 45.737125 42.059691 -50.340307 -22.548897 2.298396 7.348331 -18.154104 3.427302 -144.828427 72.538269 37.539171 2.126612 -57.360041 -32.487095 -58.264077 20.416629 -2.405056 -5.569175 16.101474 -5.697190 
-296.522706 0.000000 170.590780 0.000000 62.151982 0.000000 -0.735476 82.343529 -0.367725 96.532036 -1.758393 179.318050 160.111164 -17.637802 170.138482 -55.937732 4.722119 -9.852113 90.030983 5.545414 -7.110617 21.454553 0.003119 0.000020 -177.833209 0.267394 -167.399440 -52.770884 2.445896 0.598535 101.413200 -0.747669 -5.512854 21.454550 -0.003090 -0.000001 10.743960 -0.488172 -0.784456 11.481772 -0.895953 -1.613529 11.163757 -0.905822 -1.608102 14.651669 -8.479945 -18.488723 -27.808732 23.813368 -31.182954 172.946058 -75.183617 5.797115 11.065053 45.956203 42.560643 -49.435054 -22.458000 2.260923 7.715474 -17.758398 2.561985 -148.002944 72.615234 34.279071 -1.312468 -57.717173 -29.955798 -58.712046 20.736092 -2.443303 -5.749281 17.994028 -5.447091 
